<svg version="1.1" id="Layer_1" xmlns="http://www.w3.org/2000/svg" xmlns:xlink="http://www.w3.org/1999/xlink" x="0px" y="0px"
	 width="100%" viewBox="0 0 512 512" enable-background="new 0 0 512 512" xml:space="preserve">
<path fill="#000000" opacity="1.000000" stroke="none" 
	d="
M308.000000,513.000000 
	C206.691269,513.000000 105.882507,512.981201 5.073884,513.084167 
	C1.812300,513.087524 0.894103,512.651123 0.896629,509.075684 
	C1.015314,341.116730 1.016622,173.157700 0.892792,5.198786 
	C0.890032,1.455011 1.830551,0.912325 5.299269,0.914351 
	C173.091614,1.012336 340.884003,1.011317 508.676361,0.919933 
	C512.079163,0.918080 513.115112,1.363194 513.112183,5.174397 
	C512.982422,173.133316 512.985291,341.092346 513.100647,509.051300 
	C513.103088,512.576904 512.264771,513.094788 508.950439,513.088867 
	C442.133789,512.970093 375.316864,513.000000 308.000000,513.000000 
z"/>
<path fill="#84BA41" opacity="1.000000" stroke="none" 
	d="
M251.212875,454.532959 
	C249.682953,455.544617 248.435059,456.378113 247.068924,456.904999 
	C243.512070,458.276703 240.166275,459.181580 240.671066,453.233917 
	C240.920410,450.296295 239.081696,449.843048 236.529510,449.833282 
	C222.558990,449.779938 210.191010,461.150452 209.338821,475.925964 
	C209.061752,480.729736 207.336090,481.529510 203.450409,481.003174 
	C203.286774,480.981049 203.117477,481.002411 202.950867,481.000000 
	C199.953445,480.956787 196.451263,481.867065 194.091385,480.618439 
	C191.379883,479.183777 192.990555,475.183777 192.339600,472.348022 
	C189.309952,459.149963 178.834579,450.047302 165.372925,449.962585 
	C158.993240,449.922424 154.081375,447.569641 150.172455,442.788452 
	C146.799408,438.662720 143.402588,434.544067 140.263290,430.242035 
	C133.210999,420.577667 123.959656,414.255676 112.442116,411.081482 
	C107.475258,409.712616 102.591270,408.038055 97.686134,406.451355 
	C89.977516,403.957642 85.526939,398.646301 84.156105,390.689056 
	C83.223816,385.277374 82.093399,379.894562 81.334999,374.459320 
	C79.606712,362.073120 73.395973,352.411560 63.857971,344.608032 
	C60.121407,341.550934 56.601650,338.229828 52.960575,335.054871 
	C46.711819,329.606079 44.759624,322.809906 46.365211,314.777618 
	C47.735004,307.924896 48.986492,301.047455 50.206001,294.166016 
	C51.750980,285.448059 49.965382,277.259460 45.874237,269.545807 
	C42.599495,263.371399 39.105900,257.313477 35.749607,251.181885 
	C32.190296,244.679398 32.185505,238.144913 35.743656,231.633911 
	C37.818798,227.836624 39.672920,223.886536 42.073757,220.305038 
	C50.701347,207.434647 52.622971,193.626495 48.600243,178.786209 
	C47.600842,175.099304 47.011387,171.298935 46.286316,167.540512 
	C44.814739,159.912506 46.694786,153.354126 52.580490,148.096664 
	C54.816238,146.099564 56.857826,143.829910 59.294571,142.122009 
	C74.453896,131.496933 81.703491,116.640755 83.001076,98.513611 
	C83.048569,97.850151 83.189346,97.193771 83.248901,96.530708 
	C84.320076,84.606377 90.639580,77.287415 102.370941,74.694092 
	C103.342796,74.479263 104.275978,74.086823 105.249123,73.880806 
	C122.033142,70.327583 134.727417,61.246300 144.631302,47.108631 
	C155.780746,31.192923 159.397110,30.047962 177.913559,36.184502 
	C193.622665,41.390663 208.653137,41.298092 224.331100,36.117931 
	C242.495789,30.116135 246.223465,31.327534 257.246857,46.902050 
	C266.947052,60.607048 278.949005,70.208000 295.599091,73.399330 
	C310.489746,76.253426 318.810730,84.692154 319.275970,100.267006 
	C319.359406,103.061317 320.355011,105.816383 320.736450,108.615860 
	C322.401123,120.832581 328.606995,130.318588 337.984375,138.036301 
	C342.224945,141.526321 346.300232,145.232254 350.282288,149.017197 
	C354.778564,153.290894 356.620117,158.567200 356.067749,164.841461 
	C355.795105,167.937653 354.894165,169.137970 351.566925,169.077850 
	C340.238739,168.873169 328.900574,169.170883 317.574921,168.905319 
	C313.762787,168.815948 312.858459,169.956940 312.907593,173.644699 
	C313.058990,184.997498 312.896881,184.999664 324.357880,184.999664 
	C331.690277,184.999664 339.031403,185.215195 346.351746,184.918228 
	C350.691132,184.742203 352.595001,185.443298 351.633514,190.504227 
	C350.398132,197.006943 351.844208,203.424347 354.350861,209.541504 
	C354.998749,211.122620 355.785248,212.993744 357.891083,211.350098 
	C362.282654,207.922363 364.648682,210.272964 366.622009,214.131088 
	C366.991791,214.854080 367.365021,215.575287 367.793091,216.639374 
	C366.115906,220.225647 362.959198,219.371780 360.279877,219.405136 
	C337.383575,219.690277 315.559753,224.700684 295.493195,235.665604 
	C251.453171,259.730286 226.096497,296.840668 220.455078,346.822357 
	C216.304077,383.598999 226.428757,416.657410 248.137070,446.401459 
	C249.784241,448.658386 252.776031,450.596283 251.212875,454.532959 
z"/>
<path fill="#E43D5D" opacity="1.000000" stroke="none" 
	d="
M291.302368,458.707886 
	C251.222641,427.854828 233.937775,387.435394 243.482590,338.203217 
	C252.937195,289.436401 283.482056,257.688263 331.622925,244.944656 
	C370.950165,234.534180 406.730438,243.828125 438.359131,269.340149 
	C440.409790,270.994232 441.092163,272.737061 441.052216,275.279755 
	C440.918823,283.774170 441.114380,292.274323 440.942383,300.767334 
	C440.880524,303.820892 441.459625,305.090973 444.953247,305.094238 
	C456.858307,305.105347 456.856628,305.261139 457.002716,293.370422 
	C457.012756,292.553253 457.071655,291.736694 457.113708,290.787292 
	C482.072083,319.307068 494.147156,380.282440 459.293427,429.748108 
	C420.742004,484.461548 347.515198,497.107513 291.302368,458.707886 
z"/>
<path fill="#7A9C3D" opacity="1.000000" stroke="none" 
	d="
M251.317444,454.811218 
	C246.372833,447.555145 240.959579,440.818787 236.506866,433.391724 
	C206.366516,383.118256 211.669800,315.391663 249.318146,270.128937 
	C273.359070,241.225739 303.945465,223.998749 341.049591,218.339371 
	C349.610535,217.033585 358.266846,216.720154 367.390778,216.987976 
	C368.786102,219.712738 372.843323,221.974609 371.308258,224.518768 
	C370.121704,226.485352 366.045837,225.014893 363.273254,224.989746 
	C294.177582,224.362946 236.332993,273.463867 226.417755,342.062103 
	C221.042709,379.249237 230.331146,413.108154 252.822250,443.259552 
	C257.355011,449.336029 257.433838,449.277222 251.317444,454.811218 
z"/>
<path fill="#010100" opacity="1.000000" stroke="none" 
	d="
M153.000763,302.999969 
	C153.274841,310.627686 150.613907,318.843689 153.953384,324.585602 
	C157.170288,330.116760 164.698685,333.156494 170.369110,337.240479 
	C177.612427,342.457214 184.892120,347.623413 192.224976,352.860565 
	C193.436981,351.069427 192.972916,349.545593 192.974091,348.128815 
	C193.005508,309.969849 192.967270,271.810760 193.058853,233.651978 
	C193.066284,230.556900 192.370377,228.488388 189.671143,226.600845 
	C174.931000,216.293121 160.318344,205.801834 145.736130,195.270782 
	C143.450699,193.620300 141.171600,192.926315 138.365967,192.951691 
	C125.869499,193.064728 113.370216,192.906418 100.874794,193.067032 
	C97.822639,193.106262 96.950912,192.257904 96.917831,189.160538 
	C96.787956,176.997971 96.669067,176.999252 108.551407,176.999237 
	C116.383171,176.999222 124.221306,176.812439 132.043930,177.079849 
	C135.812149,177.208664 137.232712,176.358078 137.104736,172.232590 
	C136.784561,161.911285 137.096634,151.571884 136.940155,141.242996 
	C136.893723,138.177567 137.493240,136.916931 140.971771,136.905411 
	C153.001221,136.865601 153.000687,136.714600 153.000778,148.683167 
	C153.000839,158.181259 153.016434,167.679398 152.988785,177.177414 
	C152.982880,179.202377 152.997421,180.945236 155.023712,182.368790 
	C167.412384,191.072479 179.700043,199.919952 192.093185,208.770752 
	C193.703369,207.037552 192.957031,205.132538 192.958969,203.447906 
	C193.009735,159.290176 193.071533,115.132057 192.891876,70.974991 
	C192.873077,66.356956 193.682968,64.645401 198.744766,64.863434 
	C208.986984,65.304604 209.000748,64.985130 209.000763,75.450584 
	C209.000778,99.279129 209.000778,123.107674 209.000793,146.936218 
	C209.000809,148.738235 209.000778,150.540237 209.000778,153.319336 
	C212.848160,150.625244 216.054138,148.410370 219.228806,146.151535 
	C228.049683,139.875275 236.800339,133.497864 245.707672,127.347153 
	C248.173706,125.644318 249.110733,123.786995 249.068085,120.786728 
	C248.899963,108.958168 249.142380,97.123039 248.913681,85.296509 
	C248.844055,81.695274 250.005905,80.895248 253.419754,80.916389 
	C264.999908,80.988106 265.000580,80.853310 265.000763,92.630394 
	C265.000885,100.795418 265.132294,108.963631 264.934174,117.123833 
	C264.859924,120.182236 265.735138,121.122948 268.844513,121.069199 
	C279.505829,120.884880 290.174164,121.109657 300.835724,120.932457 
	C304.021179,120.879517 305.077606,121.698059 305.087280,125.050789 
	C305.121796,137.001114 305.257812,137.000717 293.237885,137.000748 
	C283.406525,137.000793 273.574158,137.078339 263.744446,136.951706 
	C260.945190,136.915665 258.655182,137.581238 256.365479,139.235718 
	C241.650162,149.868790 226.862610,160.402115 212.065552,170.921509 
	C210.230637,172.225967 208.927383,173.436035 208.937103,176.060425 
	C209.045135,205.220764 209.010635,234.381638 209.030167,263.542358 
	C209.030472,263.998016 209.226913,264.453552 209.496567,265.624664 
	C214.442322,262.041656 219.098801,258.675140 223.747849,255.298447 
	C230.621109,250.306274 237.326111,245.057724 244.426086,240.412552 
	C248.140518,237.982376 249.245453,235.205978 249.092590,230.959793 
	C248.781021,222.306091 249.102463,213.631409 248.942566,204.969437 
	C248.888992,202.067261 249.504440,200.949799 252.744736,200.908844 
	C265.002441,200.753967 265.000732,200.618057 265.000702,212.956848 
	C265.000671,221.455139 264.837463,229.957809 265.065369,238.449982 
	C265.189850,243.089508 263.485931,246.287415 259.740601,248.973312 
	C244.039642,260.232941 228.516724,271.741333 212.785309,282.957581 
	C209.856796,285.045593 208.912140,287.256531 208.921417,290.776794 
	C209.041336,336.267334 208.948807,381.758453 209.085907,427.248932 
	C209.098755,431.517059 208.421051,433.323578 203.532089,433.133636 
	C193.010895,432.724884 192.999268,433.024811 192.999252,422.325684 
	C192.999252,407.495331 192.913086,392.664062 193.065796,377.835266 
	C193.099731,374.540924 192.254868,372.383728 189.420227,370.406525 
	C174.941132,360.307098 160.582153,350.032806 146.298218,339.658508 
	C143.569550,337.676697 140.867630,336.904083 137.548676,336.943481 
	C125.386177,337.087830 113.219032,336.882385 101.057922,337.076752 
	C97.705597,337.130310 96.931648,336.029663 96.923775,332.842712 
	C96.894493,320.998993 96.779701,320.999359 108.368637,320.999237 
	C116.533669,320.999146 124.702339,320.857697 132.861923,321.068390 
	C136.095734,321.151917 137.136047,320.234711 137.073486,316.917145 
	C136.872406,306.256409 137.095505,295.588074 136.938217,284.925873 
	C136.894409,281.957520 137.609604,280.948395 140.788315,280.912415 
	C153.002182,280.774048 153.000732,280.644989 153.000778,293.000275 
	C153.000778,296.166870 153.000763,299.333466 153.000763,302.999969 
z"/>
<path fill="#000000" opacity="1.000000" stroke="none" 
	d="
M290.916779,169.001205 
	C295.876892,168.214447 297.268494,169.949356 297.114868,174.559296 
	C296.766357,185.018768 297.011841,184.790924 286.340698,185.112732 
	C281.950562,185.245117 280.171051,184.067047 280.993408,179.671844 
	C281.053345,179.351517 281.001343,179.010239 281.001190,178.678696 
	C280.996460,169.001251 280.996429,169.001251 290.916779,169.001205 
z"/>
<path fill="#010101" opacity="1.000000" stroke="none" 
	d="
M328.216827,284.047363 
	C335.087738,281.482178 341.846741,280.592224 348.717529,281.067383 
	C352.342896,281.318115 353.568359,279.998566 353.002045,276.591583 
	C352.975067,276.429413 352.984833,276.257538 353.000793,276.092407 
	C353.347015,272.506622 351.358002,267.004944 353.880280,265.748169 
	C357.503906,263.942596 362.613007,265.118774 367.088013,265.021393 
	C369.109283,264.977386 368.993958,266.416840 368.995911,267.770874 
	C368.999756,270.437256 369.325470,273.153107 368.929871,275.759186 
	C368.218994,280.441956 370.278412,281.317902 374.459747,281.074097 
	C384.360504,280.496765 393.654602,282.890137 402.071381,288.162598 
	C404.179382,289.483093 405.595734,289.567902 407.083679,287.600647 
	C407.382202,287.205963 407.780975,286.886749 408.136505,286.535736 
	C417.323547,277.465240 417.287872,277.496582 425.922516,287.343658 
	C427.251404,288.859131 427.676697,289.785980 426.028351,291.377838 
	C422.805786,294.489960 418.028809,297.448425 417.231964,301.182556 
	C416.519897,304.519226 420.527466,308.727203 422.049622,312.704895 
	C425.207001,320.955658 425.097076,320.997711 434.130493,320.998932 
	C441.000092,320.999878 441.000092,320.999878 441.001068,327.812225 
	C441.002411,337.000824 440.980621,337.379761 432.014435,336.864105 
	C426.301239,336.535583 423.674072,338.041290 422.347626,343.967590 
	C420.615051,351.708649 415.961121,358.224854 410.072540,363.605530 
	C408.023621,365.477661 407.912476,366.777618 409.574158,368.938354 
	C412.616730,372.894684 415.555542,376.959259 418.194702,381.192474 
	C430.043793,400.198364 417.082184,424.479858 394.661591,424.908417 
	C376.003693,425.265076 357.333740,425.023315 338.669281,424.975708 
	C335.300232,424.967102 332.367126,425.677216 330.394409,428.613403 
	C326.803436,433.958130 330.515686,440.767151 337.344849,440.932129 
	C346.505249,441.153412 355.677338,441.118073 364.839111,440.931824 
	C368.004547,440.867493 369.086212,441.646454 369.090179,445.023254 
	C369.104309,457.001221 369.244476,457.001648 357.295471,457.000793 
	C350.462860,457.000336 343.627960,457.111359 336.798157,456.971497 
	C323.449738,456.698181 313.009155,446.107300 313.007446,432.998566 
	C313.005737,419.880280 323.447113,409.169708 336.788239,409.045959 
	C355.118042,408.875854 373.451050,408.926208 391.781677,409.042206 
	C397.549072,409.078705 402.354614,407.612030 405.206146,402.249115 
	C408.071411,396.860321 406.230164,392.249237 403.254089,387.337494 
	C398.041046,378.733826 392.758942,371.292297 381.037811,376.841187 
	C380.484070,377.103333 379.720154,376.922150 379.054047,376.946198 
	C369.023102,377.308350 368.789032,377.315582 369.111877,387.625977 
	C369.248230,391.981171 368.176788,393.271057 363.684509,393.122406 
	C353.025696,392.769745 352.844940,393.021667 353.085907,382.509644 
	C353.178955,378.450989 352.614655,376.536530 347.814056,376.887787 
	C337.755157,377.623749 328.291992,375.119415 319.748047,369.697784 
	C317.783752,368.451324 316.593292,368.566681 315.091797,370.191101 
	C312.831665,372.636200 310.303864,374.837311 308.089539,377.320221 
	C306.340851,379.280945 305.154602,379.677246 302.960541,377.593597 
	C293.855133,368.946503 293.659149,368.912048 302.612000,360.202332 
	C305.286163,357.600800 305.511200,355.747864 303.425415,352.739410 
	C300.758392,348.892670 299.190338,344.408386 298.290710,339.823517 
	C297.827393,337.462311 296.779694,336.758484 294.625214,336.992340 
	C293.966461,337.063843 293.293243,337.003021 292.626648,337.001038 
	C279.751892,336.962402 279.399506,336.486633 280.945038,323.438568 
	C281.184601,321.416260 281.956238,320.983887 283.736359,320.976074 
	C288.220032,320.956421 293.692535,322.321228 296.891663,320.242462 
	C299.751892,318.383911 299.872253,312.561890 301.611267,308.671906 
	C305.216522,300.607391 305.328369,300.657379 299.285919,294.599579 
	C294.094269,289.394745 294.094269,289.394745 299.570770,283.920654 
	C305.419434,278.074585 305.419403,278.074615 310.963867,283.622406 
	C316.754974,289.417023 316.753662,289.414307 324.213257,285.830353 
	C325.413177,285.253815 326.630585,284.713745 328.216827,284.047363 
z"/>
<path fill="#000000" opacity="1.000000" stroke="none" 
	d="
M450.920227,384.997498 
	C440.998993,384.997467 441.190277,384.992065 440.917633,375.320251 
	C440.791138,370.832825 441.207581,368.513794 446.840088,368.835876 
	C456.989807,369.416199 456.758728,369.001892 457.114594,379.445465 
	C457.271942,384.061676 455.884552,385.791779 450.920227,384.997498 
z"/>
<path fill="#000000" opacity="1.000000" stroke="none" 
	d="
M288.997437,419.877197 
	C289.621460,423.975464 288.328339,425.160461 284.482300,425.101868 
	C272.868011,424.924744 273.002563,425.108765 272.917389,413.376099 
	C272.892487,409.948639 273.723083,408.382019 277.286377,408.991455 
	C277.770416,409.074249 278.280853,409.002960 278.779083,409.002472 
	C288.997498,408.992523 288.997498,408.992523 288.997437,419.877197 
z"/>
<path fill="#000000" opacity="1.000000" stroke="none" 
	d="
M399.079773,441.002502 
	C409.001007,441.002533 408.809723,441.007935 409.082367,450.679749 
	C409.208862,455.167175 408.792419,457.486237 403.159912,457.164185 
	C393.010193,456.583832 393.241302,456.998108 392.885406,446.554535 
	C392.728119,441.938324 394.115448,440.208221 399.079773,441.002502 
z"/>
<path fill="#0092B7" opacity="1.000000" stroke="none" 
	d="
M383.937134,297.827789 
	C407.608490,304.438568 416.558990,330.499542 401.993164,348.993774 
	C399.488922,352.173340 397.868866,353.198303 395.299530,349.006073 
	C392.349548,344.192810 388.715454,339.804016 385.541595,335.120361 
	C384.132080,333.040314 383.039856,332.730286 380.791260,334.197205 
	C370.138336,341.146820 370.087982,341.070862 377.431458,351.371338 
	C378.204529,352.455719 379.120758,353.462402 379.737122,354.628540 
	C380.687714,356.427124 383.485443,357.876007 382.343719,359.976349 
	C381.406586,361.700348 378.670929,360.959290 376.721649,360.970032 
	C366.230774,361.027924 355.738403,361.088684 345.248383,360.977295 
	C327.131683,360.784943 313.026978,346.757843 313.008453,329.057129 
	C312.989868,311.322754 327.059723,297.051392 345.123627,297.080383 
	C357.920959,297.100922 370.750824,296.101685 383.937134,297.827789 
z"/>
<path fill="#000000" opacity="1.000000" stroke="none" 
	d="
M336.043030,336.996338 
	C328.012787,336.849792 329.075867,338.061981 329.019501,330.410828 
	C328.950165,321.001953 329.000610,321.001587 338.205414,321.003693 
	C344.994873,321.005249 344.994873,321.005249 344.996307,327.852600 
	C344.996338,328.018250 344.996307,328.183868 344.996338,328.349518 
	C344.997040,336.995789 344.997040,336.995789 336.043030,336.996338 
z"/>
</svg>